# xmcd CD database file
#
# Track frame offsets:
#	150
#	18152
#	38570
#
# Disc length: 751 seconds
#
# Revision: 0
# Processed by: cddbd v1.5PL3 Copyright (c) Steve Scherf et al.
# Submitted via: CDex 1.51
#
DISCID=1402ed03
DTITLE=PAMELAH - キレイになんか愛せない
DYEAR=1995
DGENRE=JPop
TTITLE0=キレイになんか愛せない
TTITLE1=Dream Again
TTITLE2=キレイになんか愛せない (original karaoke)
EXTD=YEAR: 1995
EXTT0=
EXTT1=
EXTT2=
PLAYORDER=
